<?xml version="1.0" encoding="UTF-8"?>
<svg viewBox="0 0 18 20" xmlns="http://www.w3.org/2000/svg">
<path d="m2.4576 18.142c0.06094 0.6704 0.60948 1.158 1.2799 1.158h10.524c0.6705 0 1.219-0.5079 1.2799-1.158l1.1784-12.352h-15.44l1.1783 12.352z" fill="#fff"/>
<path d="m16.72 1.93h-5.14v-0.65011c0-0.71106-0.5688-1.2799-1.2799-1.2799h-2.5801c-0.71106 0-1.2799 0.56885-1.2799 1.2799v0.65011h-5.1603c-0.71106 0-1.2799 0.56885-1.2799 1.2799s0.56885 1.2799 1.2799 1.2799h15.44c0.7111 0 1.2799-0.56885 1.2799-1.2799s-0.5688-1.2799-1.2799-1.2799z" fill="#fff"/>
</svg>
